<svg width="56" height="56" viewBox="0 0 56 56" fill="none" xmlns="http://www.w3.org/2000/svg">
<rect x="1" y="1" width="54" height="54" rx="27" stroke="white" stroke-width="2"/>
<path d="M56 29C56 13.8122 44.1878 1 29 1C13.8122 1 1 13.8122 1 29C1 44.1878 13.8122 56 29 56C44.1878 56 56 44.1878 56 29Z" fill="#101111"/>
<path d="M26.0052 27L23.0072 26C22.9911 25.8643 23.0072 26.2564 23.0072 26C23.0072 24.6878 24.0212 22.92 25.0059 22C25.9906 21.0648 27.3567 21 29.0033 21C30.6337 21 31.049 21.1252 32.0013 22C32.9537 22.8597 34 24.733 34 26C34 27.8552 32.9713 28.8386 31.002 30L28.0039 32C26.8901 32.6637 26.1667 33.2911 26.0052 34H34V36H23.0072C23.0395 34.7632 23.4416 33.9352 24.0065 33C24.5876 32.0648 25.697 30.7843 27.0046 30L29.0033 29C30.4399 28.1403 32.0013 27.1765 32.0013 26C32.0013 25.276 31.5185 24.4977 31.002 24C30.4855 23.5023 29.9396 23 29.0033 23C28.0186 23 26.5218 23.442 26.0052 24C25.4887 24.558 26.0052 25.1101 26.0052 26C26.0052 26.1357 25.973 26.6983 26.0052 27Z" fill="white"/>
</svg>
