<svg width="56" height="56" viewBox="0 0 56 56" fill="none" xmlns="http://www.w3.org/2000/svg">
<rect x="1" y="1" width="54" height="54" rx="27" stroke="white" stroke-width="2"/>
<path d="M56 29C56 13.8122 44.1878 1 29 1C13.8122 1 1 13.8122 1 29C1 44.1878 13.8122 56 29 56C44.1878 56 56 44.1878 56 29Z" fill="#101111"/>
<path d="M26 29L25 27L30 23H22V21H33V23L28 27C29.2172 27 31.0756 27.2168 32 28C32.9399 28.7831 33 29.5994 33 31C33 32.2951 32.9706 34.0813 32 35C31.0294 35.9186 29.6793 36 28 36C26.3516 36 25.0014 35.8885 24 35C23.014 34.0964 22.0771 32.2801 22 31H24C24.0462 31.9488 24.3838 32.4127 25 33C25.6317 33.5722 27.0756 34 28 34C28.9861 34 29.4454 33.512 30 33C30.5701 32.4729 31 31.7681 31 31C31 30.1114 30.6008 29.4668 30 29C29.3992 28.5331 28.8319 29 28 29C27.5533 29 26.4314 28.8493 26 29Z" fill="white"/>
</svg>
