<svg width="20" height="20" viewBox="0 0 20 20" fill="none" xmlns="http://www.w3.org/2000/svg">
<path fill-rule="evenodd" clip-rule="evenodd" d="M3.33317 10.0001C3.33329 8.71712 3.7036 7.46145 4.39966 6.38373C5.09572 5.30602 6.08797 4.45203 7.25734 3.92426C8.42672 3.39648 9.72354 3.21734 10.9922 3.40831C12.2609 3.59928 13.4475 4.15227 14.4097 5.00091C15.3718 5.84955 16.0687 6.9578 16.4166 8.19267C16.7646 9.42755 16.7488 10.7366 16.3713 11.9627C15.9937 13.1889 15.2703 14.28 14.288 15.1052C13.3056 15.9305 12.1061 16.4547 10.8332 16.6151V11.6667H12.4998C12.7209 11.6667 12.9328 11.5789 13.0891 11.4227C13.2454 11.2664 13.3332 11.0544 13.3332 10.8334C13.3332 10.6124 13.2454 10.4004 13.0891 10.2442C12.9328 10.0879 12.7209 10.0001 12.4998 10.0001H10.8332V8.33341C10.8332 8.1124 10.921 7.90044 11.0772 7.74416C11.2335 7.58788 11.4455 7.50008 11.6665 7.50008H12.0832C12.3042 7.50008 12.5161 7.41228 12.6724 7.256C12.8287 7.09972 12.9165 6.88776 12.9165 6.66675C12.9165 6.44573 12.8287 6.23377 12.6724 6.07749C12.5161 5.92121 12.3042 5.83341 12.0832 5.83341H11.6665C11.0035 5.83341 10.3676 6.09681 9.89874 6.56565C9.4299 7.03449 9.1665 7.67037 9.1665 8.33341V10.0001H7.49984C7.27882 10.0001 7.06686 10.0879 6.91058 10.2442C6.7543 10.4004 6.6665 10.6124 6.6665 10.8334C6.6665 11.0544 6.7543 11.2664 6.91058 11.4227C7.06686 11.5789 7.27882 11.6667 7.49984 11.6667H9.1665V16.6151C7.55542 16.4119 6.07385 15.6278 4.99984 14.4099C3.92583 13.1919 3.3332 11.6239 3.33317 10.0001ZM9.99984 18.3334C14.6023 18.3334 18.3332 14.6026 18.3332 10.0001C18.3332 5.39758 14.6023 1.66675 9.99984 1.66675C5.39734 1.66675 1.6665 5.39758 1.6665 10.0001C1.6665 14.6026 5.39734 18.3334 9.99984 18.3334Z" fill="white"/>
</svg>
