<svg width="20" height="20" viewBox="0 0 20 20" fill="none" xmlns="http://www.w3.org/2000/svg">
<path d="M10.0007 7.50008C9.33763 7.50008 8.70174 7.76347 8.2329 8.23231C7.76406 8.70115 7.50067 9.33704 7.50067 10.0001C7.50067 10.6631 7.76406 11.299 8.2329 11.7678C8.70174 12.2367 9.33763 12.5001 10.0007 12.5001C10.6637 12.5001 11.2996 12.2367 11.7684 11.7678C12.2373 11.299 12.5007 10.6631 12.5007 10.0001C12.5007 9.33704 12.2373 8.70115 11.7684 8.23231C11.2996 7.76347 10.6637 7.50008 10.0007 7.50008ZM10.0007 5.83341C11.1057 5.83341 12.1655 6.2724 12.9469 7.0538C13.7284 7.8352 14.1673 8.89501 14.1673 10.0001C14.1673 11.1052 13.7284 12.165 12.9469 12.9464C12.1655 13.7278 11.1057 14.1667 10.0007 14.1667C8.8956 14.1667 7.83579 13.7278 7.05439 12.9464C6.27299 12.165 5.834 11.1052 5.834 10.0001C5.834 8.89501 6.27299 7.8352 7.05439 7.0538C7.83579 6.2724 8.8956 5.83341 10.0007 5.83341ZM15.4173 5.62508C15.4173 5.90135 15.3076 6.1663 15.1122 6.36165C14.9169 6.557 14.6519 6.66675 14.3757 6.66675C14.0994 6.66675 13.8345 6.557 13.6391 6.36165C13.4438 6.1663 13.334 5.90135 13.334 5.62508C13.334 5.34881 13.4438 5.08386 13.6391 4.88851C13.8345 4.69316 14.0994 4.58341 14.3757 4.58341C14.6519 4.58341 14.9169 4.69316 15.1122 4.88851C15.3076 5.08386 15.4173 5.34881 15.4173 5.62508ZM10.0007 3.33341C7.939 3.33341 7.60234 3.33925 6.64317 3.38175C5.98984 3.41258 5.5515 3.50008 5.14484 3.65841C4.80452 3.78336 4.49685 3.98363 4.24484 4.24425C3.98401 4.49625 3.78346 4.8039 3.65817 5.14425C3.49984 5.55258 3.41234 5.99008 3.38234 6.64258C3.339 7.56258 3.33317 7.88425 3.33317 10.0001C3.33317 12.0626 3.339 12.3984 3.3815 13.3576C3.41234 14.0101 3.49984 14.4492 3.65734 14.8551C3.799 15.2176 3.96567 15.4784 4.24234 15.7551C4.52317 16.0351 4.784 16.2026 5.14234 16.3409C5.554 16.5001 5.99234 16.5884 6.64234 16.6184C7.56234 16.6617 7.884 16.6667 9.99984 16.6667C12.0623 16.6667 12.3982 16.6609 13.3573 16.6184C14.009 16.5876 14.4473 16.5001 14.8548 16.3426C15.1948 16.217 15.5024 16.0168 15.7548 15.7567C16.0357 15.4767 16.2032 15.2159 16.3415 14.8567C16.4998 14.4467 16.5882 14.0084 16.6182 13.3567C16.6615 12.4376 16.6665 12.1151 16.6665 10.0001C16.6665 7.93841 16.6607 7.60175 16.6182 6.64258C16.5873 5.99091 16.499 5.55091 16.3415 5.14425C16.2159 4.80426 16.0157 4.49673 15.7557 4.24425C15.5038 3.98329 15.1961 3.78272 14.8557 3.65758C14.4473 3.49925 14.009 3.41175 13.3573 3.38175C12.4382 3.33841 12.1165 3.33341 9.99984 3.33341M9.99984 1.66675C12.264 1.66675 12.5465 1.67508 13.4357 1.71675C14.3223 1.75841 14.9273 1.89758 15.4582 2.10425C16.0082 2.31591 16.4715 2.60258 16.9348 3.06508C17.3586 3.48166 17.6865 3.98557 17.8957 4.54175C18.1015 5.07258 18.2415 5.67758 18.2832 6.56508C18.3223 7.45341 18.3332 7.73591 18.3332 10.0001C18.3332 12.2642 18.3248 12.5467 18.2832 13.4351C18.2415 14.3226 18.1015 14.9267 17.8957 15.4584C17.687 16.0149 17.3591 16.5189 16.9348 16.9351C16.5181 17.3587 16.0143 17.6865 15.4582 17.8959C14.9273 18.1017 14.3223 18.2417 13.4357 18.2834C12.5465 18.3226 12.264 18.3334 9.99984 18.3334C7.73567 18.3334 7.45317 18.3251 6.564 18.2834C5.67734 18.2417 5.07317 18.1017 4.5415 17.8959C3.98511 17.6871 3.48111 17.3592 3.06484 16.9351C2.64103 16.5186 2.31314 16.0146 2.104 15.4584C1.89734 14.9276 1.75817 14.3226 1.7165 13.4351C1.6765 12.5467 1.6665 12.2642 1.6665 10.0001C1.6665 7.73591 1.67484 7.45341 1.7165 6.56508C1.75817 5.67758 1.89734 5.07341 2.104 4.54175C2.31253 3.98523 2.64051 3.48118 3.06484 3.06508C3.48123 2.64111 3.98519 2.31319 4.5415 2.10425C5.07234 1.89758 5.6765 1.75841 6.564 1.71675C7.454 1.67758 7.7365 1.66675 10.0007 1.66675" fill="white"/>
</svg>
